<svg width="11" height="14" fill="none" xmlns="http://www.w3.org/2000/svg"><path fill-rule="evenodd" clip-rule="evenodd" d="M5.434.295c1.225 0 2.415.414 3.352 1.165a5.358 5.358 0 0 1 2.034 3.926 5.401 5.401 0 0 1-1.57 4.109l-3.58 3.534a.377.377 0 0 1-.519 0l-3.53-3.532A5.4 5.4 0 0 1 .049 5.386 5.358 5.358 0 0 1 2.081 1.46 5.371 5.371 0 0 1 5.434.295Zm-2.407 5.39A2.409 2.409 0 0 0 5.434 8.09 2.408 2.408 0 0 0 7.84 5.684a2.409 2.409 0 0 0-2.406-2.406 2.409 2.409 0 0 0-2.407 2.406Z" fill="#fff"/><path d="M5.434 4.512a1.173 1.173 0 1 0 .001 2.346 1.173 1.173 0 0 0-.001-2.346Z" fill="#fff"/></svg>