<svg width="47" height="48" fill="none" xmlns="http://www.w3.org/2000/svg"><g filter="url(#a)" fill="#fff"><path d="M42.037 32.188H33.75a.484.484 0 0 0 0 .97h8.287a.484.484 0 0 0 0-.97ZM42.037 38.34h-9.291a.484.484 0 0 0 0 .97h9.291a.484.484 0 0 0 0-.97ZM4.481 35.692h7.493a.484.484 0 0 0 0-.971H4.481a.484.484 0 0 0-.481.485c0 .27.216.486.481.486Z"/><path fill-rule="evenodd" clip-rule="evenodd" d="M7.745.535A.478.478 0 0 1 8.3.627a.49.49 0 0 1 .088.562 4.263 4.263 0 0 0-.45 1.91c0 2.378 1.93 4.314 4.3 4.314.664 0 1.306-.154 1.907-.453a.478.478 0 0 1 .555.092.488.488 0 0 1 .09.56 5.231 5.231 0 0 1-4.711 2.94c-2.902 0-5.263-2.372-5.263-5.286A5.258 5.258 0 0 1 7.745.535Zm5.383 7.772a5.155 5.155 0 0 1-.89.076c-2.902 0-5.262-2.37-5.26-5.284 0-.303.024-.6.075-.894a4.286 4.286 0 0 0-1.274 3.061c0 2.38 1.93 4.315 4.3 4.315a4.256 4.256 0 0 0 3.049-1.274ZM42.039 24.41h-.002a.484.484 0 0 0-.481.483l-.012 2.592L23.677.923c-.179-.267-.617-.267-.797 0L5.025 27.466l.012-2.75a.483.483 0 0 0-.48-.488h-.002a.484.484 0 0 0-.481.483l-.017 4.342a.486.486 0 0 0 .481.487.485.485 0 0 0 .399-.212l2.81-4.177v3.905c0 .268.216.486.481.486h10.724a4.368 4.368 0 0 0 4.168 3.094l.019-.001a.226.226 0 0 1 .028 0H23.194l.01-.002a4.366 4.366 0 0 0 4.081-3.091h11.045a.484.484 0 0 0 .482-.486v-3.905l2.81 4.177a.477.477 0 0 0 .538.191.485.485 0 0 0 .34-.463l.019-4.159a.482.482 0 0 0-.48-.487Zm-18.806 7.25h-.006l-.07.003a1.535 1.535 0 0 1-1.512-1.531c0-.552.805-1.822 1.531-2.78.726.958 1.531 2.228 1.531 2.78 0 .824-.656 1.497-1.474 1.528Zm2.435-1.53c0 .144-.018.28-.041.417.551-.607.89-1.409.886-2.29 0-1.454-2.19-4.548-3.397-6.088-1.205 1.54-3.397 4.636-3.397 6.088 0 .955.397 1.82 1.031 2.44a2.567 2.567 0 0 1-.07-.567c0-1.229 1.77-3.437 2.124-3.868a.496.496 0 0 1 .741 0c.355.43 2.123 2.64 2.123 3.868Zm-2.177-9.041a.496.496 0 0 0-.742 0c-.408.495-3.989 4.908-3.989 7.168 0 .076.005.151.01.226l.005.089h-4.848v-3.2c.628-.512 2.71-2.287 4.818-4.92 1.712-2.137 3.666-5.157 4.552-8.6.886 3.445 2.84 6.463 4.551 8.6 2.109 2.633 4.19 4.408 4.82 4.92v3.2h-5.205c.007-.104.015-.209.015-.315.002-2.26-3.58-6.673-3.987-7.168Zm10.137 7.483h4.22l.003-4.852L23.28 2.061 8.71 23.721v4.85h4.252v-3.435c0-.151.07-.293.188-.384.117-.092 9.663-7.635 9.663-16.562 0-.267.217-.485.482-.485s.481.218.481.485c0 8.924 9.54 16.464 9.663 16.561a.49.49 0 0 1 .189.385v3.436Z"/><path fill-rule="evenodd" clip-rule="evenodd" d="M30.596 34.433a.488.488 0 0 1-.304.622l-1.781.593 1.711.487a.486.486 0 0 1 .331.605l-.615 2.09a.48.48 0 0 1-.592.327l-6.128-1.746-5.624 1.875a.474.474 0 0 1-.602-.301l-.709-2.061a.486.486 0 0 1 .303-.62l1.486-.495-1.785-.508a.485.485 0 0 1-.331-.605l.615-2.089a.48.48 0 0 1 .592-.33l6.201 1.767 5.917-1.973a.48.48 0 0 1 .606.301l.709 2.061Zm-13.237-1.092-.342 1.158 2.686.766 2.03-.677-4.374-1.247Zm12.131 3.594-.342 1.159-4.3-1.227 2.032-.677 2.61.745Zm-12.14.137.393 1.143 11.783-3.928-.393-1.143-11.783 3.928Z"/></g><defs><filter id="a" x="0" y=".484" width="46.519" height="46.827" filterUnits="userSpaceOnUse" color-interpolation-filters="sRGB"><feFlood flood-opacity="0" result="BackgroundImageFix"/><feColorMatrix in="SourceAlpha" values="0 0 0 0 0 0 0 0 0 0 0 0 0 0 0 0 0 0 127 0" result="hardAlpha"/><feOffset dy="4"/><feGaussianBlur stdDeviation="2"/><feColorMatrix values="0 0 0 0 0 0 0 0 0 0 0 0 0 0 0 0 0 0 0.25 0"/><feBlend in2="BackgroundImageFix" result="effect1_dropShadow_0_2932"/><feBlend in="SourceGraphic" in2="effect1_dropShadow_0_2932" result="shape"/></filter></defs></svg>