<svg width="61" height="48" fill="none" xmlns="http://www.w3.org/2000/svg"><path fill-rule="evenodd" clip-rule="evenodd" d="M59.598 43.861a.52.52 0 0 1-.036.083.172.172 0 0 1-.056.073.95.95 0 0 1-.033.048l-.016.024c-.019.023-.04.05-.061.073a1.282 1.282 0 0 1-.17.144 2.174 2.174 0 0 1-.056.033l-.014.008a.716.716 0 0 1-.157.07.334.334 0 0 1-.038.013c-.005.002-.01.002-.013.002h-.013a.893.893 0 0 1-.226.032c-.106 0-.143.016-.143.016-.044.05-.122.304-.172.464l-.005.016c-.183.593-.567 1.827-2.116 1.827-1.326 0-1.984-.888-2.466-1.538l-.004-.005c-.451-.614-.623-.78-.961-.78-.34 0-.508.166-.962.778l-.004.005c-.481.65-1.14 1.538-2.468 1.538-1.326 0-1.984-.889-2.466-1.538l-.003-.005c-.452-.612-.624-.778-.962-.778-.337 0-.508.166-.962.78-.48.65-1.14 1.543-2.47 1.543-1.328 0-1.986-.888-2.468-1.538l-.003-.005c-.452-.612-.623-.778-.962-.778-.339 0-.508.166-.962.778-.48.65-1.138 1.543-2.47 1.543-1.325 0-1.983-.888-2.465-1.538l-.004-.005c-.451-.612-.623-.778-.962-.778-.336 0-.507.166-.961.78-.48.651-1.14 1.543-2.47 1.543-1.325 0-1.984-.888-2.466-1.538l-.003-.004c-.452-.612-.623-.779-.962-.779-.336 0-.508.167-.962.781-.48.65-1.14 1.543-2.47 1.543a1.4 1.4 0 0 1-1.074-.487c-.656-.754-.524-2.04-.254-4.077l.005-.035c.096-.737.244-1.86.195-2.407-1.757.346-4.25 3.9-5.543 6.484a.937.937 0 0 1-.84.522c-.018 0-.037 0-.056-.002a.937.937 0 0 1-.828-.622c-.216-.603-2.065-5.974-.143-8.945.72-1.11 1.886-1.75 3.377-1.847 1.296-.085 1.888-.436 2.001-.714.075-.185-.045-.5-.308-.802-.7-.805-2.267-1.45-4.05-.961-2.471.674-5.242 4.018-6.175 7.454-.327 1.208-.68 3.444.656 4.828a.957.957 0 0 1-.019 1.343.934.934 0 0 1-1.331-.02c-1.475-1.525-1.872-3.889-1.122-6.651.971-3.58 4.043-7.844 7.5-8.786 2.575-.703 4.844.266 5.954 1.54.77.88 1 1.894.635 2.782-.317.771-1.201 1.725-3.619 1.884-.9.06-1.529.384-1.921.99-.793 1.224-.61 3.396-.25 5.128 1.412-2.285 3.888-5.605 6.451-5.525.414.015.788.195 1.051.51.264.314.393.72.44 1.223 1.731-1.156 4.257-2.3 9.243-2.808-5.405-22.095 4.755-34.533 5.216-35.081l.011-.01a.384.384 0 0 1 .16-.147c.03-.02.058-.035.089-.052l.02-.012c.019-.012.037-.023.059-.033a.917.917 0 0 1 .136-.045l.033-.009a.9.9 0 0 1 .214-.027l.139.005c.277 0 .538.121.717.335.46.545 10.57 12.92 5.263 34.908 13.88.82 15.578 6.41 15.643 6.654.003.01.003.022.005.031l.014.093c.005.033.01.066.01.1a.08.08 0 0 0 0 .006v.008l.002.007v.007a.275.275 0 0 1-.004.049V43.587a.718.718 0 0 1-.02.138l-.011.046-.005.017-.003.011a.563.563 0 0 1-.02.062Zm-20.79-4.314h2.432c5.355-17.673.317-29.587-2.432-34.317v34.317ZM36.927 5.479v34.068h-2.293c-5.252-17.33-.478-29.168 2.293-34.068ZM56.599 44.42l.005-.015c.11-.356.298-.94.761-1.35-1.041-1.33-4.327-4.059-13.863-4.555-.207.752-.43 1.514-.675 2.288a.943.943 0 0 1-.896.662H33.94a.943.943 0 0 1-.896-.662 70.894 70.894 0 0 1-.628-2.131c-6.046.574-8.21 2.105-9.863 3.396l-.022.166c-.01.087-.022.175-.035.268-.091.693-.232 1.76-.204 2.33.171-.102.345-.31.628-.695l.003-.004c.482-.65 1.14-1.538 2.468-1.538 1.326 0 1.985.888 2.466 1.538l.004.004c.451.612.623.779.962.779.338 0 .508-.167.961-.779l.004-.004c.482-.65 1.14-1.538 2.468-1.538 1.326 0 1.984.888 2.466 1.538l.003.004c.454.612.626.779.962.779.339 0 .508-.167.962-.779.48-.65 1.139-1.542 2.47-1.542 1.325 0 1.984.888 2.465 1.538l.004.004c.454.615.625.781.964.781.339 0 .508-.166.962-.778l.003-.005c.482-.65 1.14-1.538 2.469-1.538 1.325 0 1.984.888 2.466 1.538l.003.005c.452.612.623.778.962.778.338 0 .51-.166.964-.78.48-.651 1.14-1.543 2.47-1.543 1.327 0 1.986.888 2.468 1.538l.003.004c.454.612.626.779.962.779.106 0 .143-.017.143-.017.044-.05.122-.304.172-.464Z" fill="#fff"/><path d="m59.562 43.944-.44-.238.758.624-.318-.386Zm.036-.083-.463-.19-.006.016-.006.017.475.157Zm-.035.083.448.222-.766-.608.318.386Zm-.057.073-.279-.414-.087.058-.057.09.423.266Zm-.033.048.407.292-.407-.292Zm-.016.024.392.31.01-.012.009-.013-.411-.285Zm-.061.073.355.352.01-.01.008-.009-.373-.333Zm-.059.057-.334-.372-.01.01-.011.01.355.352Zm-.075.064.279.415.008-.006.009-.006-.296-.403Zm-.035.023-.27-.421.27.421Zm-.036.022.225.447.018-.009.016-.01-.259-.428Zm-.02.011-.242-.438.241.438Zm-.015.008-.244-.436.244.436Zm-.05.026-.21-.453-.008.003-.007.004.225.446Zm-.029.013-.186-.464.186.464Zm-.033.013-.171-.47.171.47Zm-.027.01.177.468.004-.002-.18-.466Zm-.018.008.2.458-.2-.458Zm-.018.007.18.467-.18-.467Zm-.02.006-.11-.488-.013.004.123.484Zm-.014.002v-.5h-.002l.002.5Zm-.012 0-.122-.484h-.004l.126.485Zm-.37.048-.201-.457-.104.046-.074.086.38.325Zm-.171.464.477.149-.477-.149Zm-.005.016-.477-.149.477.149Zm-4.582.289-.402.297.402-.297Zm-.004-.005-.403.296.002.002.401-.298Zm-1.923-.002.401.298-.401-.298Zm-.004.005-.401-.298.401.297Zm-4.934 0 .402-.298-.402.297Zm-.003-.005-.403.297h.001l.402-.297Zm-1.924.002-.402-.297.402.297Zm-4.938.005.402-.298-.402.298Zm-.003-.005-.403.297.001.001.402-.298Zm-1.924 0-.402-.297.402.297Zm-4.935.005.401-.298-.401.298Zm-.004-.005-.402.297v.001l.402-.298Zm-1.923.003-.403-.297.403.297Zm-4.936.004.402-.297-.402.297Zm-.003-.004-.402.297.402-.297Zm-1.924.002-.402-.297.402.297Zm-3.544 1.056.379-.326-.002-.002-.377.328Zm-.254-4.077.496.066-.496-.066Zm.005-.035-.496-.065.496.065Zm.195-2.407.498-.044-.05-.554-.545.107.097.491Zm-5.543 6.484-.447-.224-.001.002.448.222Zm-.896.52.063-.496-.017-.003h-.017l-.029.499Zm-.828-.622.471-.168v-.001l-.47.169Zm-.143-8.945-.42-.272.42.272Zm3.377-1.847.032.5-.032-.5Zm2.001-.714.463.188-.463-.188Zm-.308-.802-.377.328.377-.328Zm-4.05-.961.132.482-.132-.482Zm-6.175 7.454-.483-.13.483.13Zm.656 4.828.36-.347-.36.347Zm-.019 1.343.35.357-.35-.357Zm-1.331-.02.36-.346-.36.347Zm-1.122-6.651.483.13-.483-.13Zm7.5-8.786.131.482-.131-.482Zm5.954 1.54-.377.329.377-.329Zm.635 2.782.463.19-.463-.19Zm-3.619 1.884-.033-.499.033.5Zm-1.921.99-.42-.273v.001l.42.272Zm-.25 5.128-.49.102.256 1.23.66-1.069-.426-.263Zm6.451-5.525.017-.5h-.001l-.016.5Zm1.051.51-.383.32v.002l.383-.321Zm.44 1.223-.498.046.078.835.698-.465-.278-.416Zm9.243-2.808.05.498.572-.059-.136-.558-.486.12ZM37.146 1.71l-.355-.352-.015.015-.013.015.383.322Zm.011-.01.313.39-.313-.39Zm.015-.014-.37-.337-.016.019-.016.02.402.298Zm.087-.083.325.38.015-.013.015-.015-.355-.352Zm.059-.05-.28-.414.28.414Zm.088-.052.245.435-.245-.435Zm.02-.012.245.436.011-.006.01-.007-.266-.423Zm.059-.033-.196-.46L37.28 1l.205.456Zm.136-.045L37.55.916l-.026.004-.025.006.122.485Zm.033-.009.16.474.004-.002-.164-.472Zm0 0-.16-.474-.004.002.164.472Zm.016-.005-.11-.488-.014.003-.014.004.138.48Zm.198-.022.017-.5h-.017v.5Zm.139.005-.017.5h.017v-.5Zm.717.335-.383.32.001.002.382-.322Zm5.263 34.908-.486-.117-.14.58.597.036.03-.5Zm15.643 6.654.486-.12-.003-.01-.483.13Zm.005.031.495-.075-.004-.023-.005-.022-.486.12Zm.014.093.495-.07v-.006l-.495.076Zm.01.106-.498.046.001.01.497-.056Zm0 .008-.496.056v.005l.497-.061Zm.002.007.498-.043-.498.043Zm0 .025-.5-.036.5.036Zm-.004.03-.496-.061.496.062Zm0 .007-.497-.063-.001.014-.001.013.498.035Zm0 .003-.5-.035.5.035Zm-.012.098-.49-.103-.002.01-.002.012.494.081Zm-.004.022.49.099-.49-.099Zm-.004.018-.488-.11v.001l.488.11Zm-.011.046.48.141.002-.01.003-.01-.485-.121Zm-.005.017-.48-.142-.001.005.481.136Zm-.003.011-.481-.136.48.136ZM41.24 39.547v.5h.37l.108-.355-.478-.145Zm-2.432 0h-.5v.5h.5v-.5Zm0-34.317.432-.252-.932-1.604V5.23h.5Zm-1.881 34.317v.5h.5v-.5h-.5Zm0-34.068h.5v-1.9l-.935 1.654.435.246Zm-2.293 34.068-.479.145.108.355h.37v-.5Zm21.97 4.858.477.148.232-.746-.774.102.065.496Zm-.005.015.478.148-.478-.148Zm.004-.015-.477-.149-.232.746.774-.102-.065-.495Zm.762-1.35.332.373.352-.312-.29-.37-.394.308ZM43.502 38.5l.026-.5-.402-.02-.106.387.482.133Zm-.675 2.288.477.15-.477-.15Zm-9.783 0-.477.15.477-.15Zm-.628-2.131.482-.135-.113-.403-.416.04.047.498Zm-9.863 3.396-.308-.394-.161.126-.027.202.496.066Zm-.022.166.497.063-.497-.063Zm-.035.268-.495-.069v.003l.495.066Zm-.204 2.33-.5.025.041.83.714-.425-.255-.43Zm.628-.695-.402-.297-.001.001.403.296Zm.003-.004-.402-.298.402.298Zm4.934 0-.401.297.401-.297Zm.004.004.402-.297-.402.297Zm1.923 0 .402.298-.402-.298Zm.004-.004-.402-.298.402.298Zm4.934 0-.402.297.402-.297Zm.003.004.402-.298-.402.298Zm1.924 0 .402.298v-.001l-.402-.297Zm4.935-.004.402-.298-.401.298Zm.004.004.402-.297-.402.297Zm1.926.003-.402-.298.402.298Zm.003-.005-.401-.298.401.298Zm4.935 0-.402.298.402-.298Zm.003.005.402-.297v-.001l-.402.298Zm1.926-.003.402.297-.402-.297Zm4.938-.004-.402.297.402-.297Zm.003.004.402-.298-.402.298Zm1.105.762.202.457.104-.046.074-.086-.38-.325Zm3.575-.702c.03-.057.053-.113.07-.164l-.95-.314a.05.05 0 0 1-.001.005l.001-.003.88.476Zm-.757-.624.635.772-.635-.772Zm.54.874c.148-.1.21-.236.226-.266l-.896-.444c-.014.027.02-.058.112-.12l.558.83Zm.095-.075c.01-.014.03-.041.05-.073l-.847-.533a.501.501 0 0 1-.016.023l.813.583Zm-.012.017.012-.017-.813-.583a3.188 3.188 0 0 0-.02.03l.82.57Zm-.099.121c.03-.035.06-.07.08-.096l-.784-.621a1.144 1.144 0 0 1-.042.051l.746.666Zm-.098.096c.034-.03.062-.06.08-.077l-.71-.704-.038.037.668.744Zm-.113.095c.04-.03.088-.068.134-.115l-.71-.704-.004.004a.211.211 0 0 1-.012.01l.592.805Zm-.062.042.045-.03-.558-.83-.026.017.539.843Zm-.046.028.046-.029-.539-.842a1.18 1.18 0 0 1-.025.016l.518.855Zm-.039.022.005-.003-.45-.893a1.198 1.198 0 0 0-.037.02l.482.876Zm-.01.006.01-.007-.482-.876-.017.01.488.873Zm-.083.043c.037-.018.069-.036.082-.043l-.488-.873a.701.701 0 0 1-.016.009c-.002.001-.002.001 0 0l.422.907Zm-.055.023a.877.877 0 0 0 .069-.03l-.45-.893.01-.005.371.928Zm-.047.018.048-.018-.373-.928a.62.62 0 0 1-.018.007l.343.94Zm-.018.007.018-.007-.343-.939-.037.014.362.932Zm.002 0 .003-.002-.009.004-.354-.936-.042.018.402.915Zm-.039.016.039-.016-.402-.916-.003.001.007-.003.359.934Zm-.09.027a.648.648 0 0 0 .09-.027l-.359-.934a.337.337 0 0 1 .05-.014l.218.975Zm-.123.014s.063.001.135-.017l-.245-.97c.063-.015.117-.014.11-.014v1Zm-.002 0h.002v-1h-.002v1Zm.11-.014c-.056.014-.103.014-.108.014l-.003-1c-.013 0-.067 0-.132.016l.244.97Zm-.347.046c.129 0 .247-.02.352-.047l-.252-.968a.396.396 0 0 1-.1.015v1Zm-.143-.484.201.458h-.001l-.002.001-.004.002-.007.003a1.573 1.573 0 0 1-.036.012.284.284 0 0 1-.03.008c-.01.002-.005 0 .022 0v-1a1.116 1.116 0 0 0-.28.035.627.627 0 0 0-.05.017l-.008.004-.004.001-.001.001h-.001l.2.458Zm.306.612a8.186 8.186 0 0 1 .115-.344l.003-.006a.4.4 0 0 1-.044.063l-.76-.65c-.068.079-.106.172-.118.2-.02.049-.04.102-.058.151-.035.1-.07.212-.093.29l.955.296Zm-.005.016.005-.015-.956-.297-.004.015.955.297Zm-2.594 2.179c.932 0 1.555-.382 1.958-.875.381-.467.546-1.014.636-1.305l-.955-.295c-.094.302-.213.67-.456.968-.222.272-.566.507-1.183.507v1Zm-2.868-1.74c.474.639 1.268 1.74 2.868 1.74v-1c-1.052 0-1.575-.675-2.065-1.336l-.803.596Zm-.003-.005.003.005.804-.596-.004-.004-.803.595Zm-.56-.578c.042 0 .057.005.062.006a.19.19 0 0 1 .056.037c.087.073.209.218.44.533l.806-.592c-.22-.299-.41-.545-.605-.708a1.122 1.122 0 0 0-.76-.276v1Zm-.56.576c.233-.315.354-.46.442-.533a.193.193 0 0 1 .056-.037.183.183 0 0 1 .062-.006v-1c-.283 0-.524.08-.759.275-.195.163-.385.408-.605.705l.803.596Zm-.004.004.003-.004-.803-.596-.003.005.803.595Zm-2.87 1.74c1.602 0 2.396-1.1 2.87-1.74l-.803-.595c-.49.66-1.013 1.336-2.067 1.336v1Zm-2.868-1.74c.474.64 1.268 1.74 2.868 1.74v-1c-1.051 0-1.575-.675-2.064-1.335l-.804.595Zm-.003-.004.004.004.803-.595-.004-.005-.803.596Zm-.56-.576c.042 0 .057.005.062.006a.195.195 0 0 1 .056.037c.088.073.21.217.441.532l.805-.594c-.22-.298-.41-.543-.606-.706a1.123 1.123 0 0 0-.758-.275v1Zm-.56.577c.233-.315.355-.46.444-.534a.197.197 0 0 1 .056-.037c.004-.002.018-.006.06-.006v-1c-.282 0-.523.08-.758.276-.195.163-.386.408-.606.707l.804.594Zm-2.872 1.746c1.604 0 2.4-1.106 2.872-1.746l-.805-.593c-.487.66-1.013 1.339-2.067 1.339v1Zm-2.87-1.74c.475.64 1.268 1.74 2.87 1.74v-1c-1.053 0-1.577-.676-2.066-1.336l-.803.596Zm-.003-.005.004.005.803-.596-.004-.004-.803.595Zm-.56-.576a.19.19 0 0 1 .062.007.195.195 0 0 1 .056.037c.088.073.21.217.441.531l.805-.593c-.22-.298-.41-.543-.605-.707a1.123 1.123 0 0 0-.759-.275v1Zm-.56.576c.233-.315.355-.46.443-.533a.191.191 0 0 1 .055-.037.185.185 0 0 1 .062-.006v-1c-.282 0-.524.08-.758.276-.195.163-.385.407-.606.705l.804.595Zm-2.871 1.745c1.606 0 2.4-1.106 2.871-1.746l-.804-.593c-.488.66-1.011 1.339-2.067 1.339v1Zm-2.868-1.74c.474.639 1.268 1.74 2.868 1.74v-1c-1.051 0-1.575-.675-2.064-1.336l-.804.596Zm-.003-.005.003.005.803-.596-.003-.005-.803.596Zm-.56-.576c.042 0 .057.005.062.007a.193.193 0 0 1 .056.037c.088.073.21.217.441.531l.805-.593c-.22-.298-.41-.543-.606-.707a1.123 1.123 0 0 0-.759-.275v1Zm-.56.578c.233-.316.355-.46.443-.534a.194.194 0 0 1 .056-.038.178.178 0 0 1 .06-.006v-1c-.281 0-.523.08-.757.276-.195.163-.386.409-.607.708l.805.594Zm-2.872 1.745c1.604 0 2.4-1.105 2.872-1.745l-.805-.594c-.487.66-1.013 1.34-2.067 1.34v1Zm-2.867-1.74c.474.64 1.267 1.74 2.867 1.74v-1c-1.05 0-1.574-.675-2.064-1.335l-.803.595Zm-.004-.004.004.004.803-.596-.003-.004-.804.596Zm-.56-.577c.043 0 .058.005.062.007a.191.191 0 0 1 .057.037c.087.073.209.217.44.532l.805-.594c-.22-.298-.41-.543-.605-.706a1.123 1.123 0 0 0-.759-.276v1Zm-.56.578c.233-.315.356-.46.444-.534a.197.197 0 0 1 .056-.037.178.178 0 0 1 .06-.007v-1c-.282 0-.523.08-.757.277-.196.163-.386.408-.607.707l.805.594Zm-2.871 1.746c1.603 0 2.4-1.106 2.872-1.746l-.805-.594c-.487.66-1.013 1.34-2.067 1.34v1Zm-1.453-.66a1.9 1.9 0 0 0 1.453.66v-1a.9.9 0 0 1-.696-.313l-.757.653Zm-.372-4.47c-.134 1.01-.24 1.88-.224 2.597.016.72.158 1.37.597 1.874l.755-.656c-.217-.25-.338-.62-.352-1.241-.015-.625.08-1.415.216-2.442l-.992-.132Zm.005-.034-.005.035.992.13.005-.035-.992-.13Zm.193-2.298c.02.222 0 .597-.043 1.04a38.5 38.5 0 0 1-.15 1.258l.992.13c.048-.367.11-.84.154-1.292.042-.44.072-.9.043-1.224l-.996.088Zm-4.598 6.664c.633-1.265 1.561-2.77 2.541-3.993.49-.612.984-1.143 1.452-1.537.477-.402.884-.625 1.2-.687l-.194-.982c-.562.111-1.125.462-1.65.904-.535.45-1.074 1.035-1.588 1.677-1.03 1.286-1.995 2.85-2.655 4.17l.894.448Zm-1.287.798c.542 0 1.043-.306 1.288-.8l-.896-.444a.437.437 0 0 1-.392.244v1Zm-.119-.006c.056.007.106.006.12.006v-1H14.431l.019.002-.126.992Zm-1.236-.95c.195.544.695.92 1.27.953l.058-.999a.437.437 0 0 1-.386-.29l-.942.336Zm-.092-9.385c-1.064 1.646-1.057 3.889-.805 5.701.255 1.839.784 3.369.898 3.685l.94-.338a18.719 18.719 0 0 1-.848-3.485c-.246-1.766-.203-3.694.655-5.02l-.84-.543Zm3.764-2.074c-1.625.107-2.946.812-3.764 2.074l.84.544c.621-.96 1.633-1.531 2.99-1.62l-.066-.998Zm1.571-.403c.02-.051.002.038-.284.155-.26.107-.675.208-1.287.248l.066.998c.684-.045 1.212-.161 1.601-.321.363-.15.697-.375.83-.704l-.926-.376Zm-.221-.285c.102.117.162.221.19.294a.238.238 0 0 1 .016.058c0 .002-.002-.025.015-.067l.926.376c.107-.262.05-.532-.023-.724-.079-.207-.21-.41-.371-.595l-.753.658Zm-3.541-.808c1.608-.441 2.973.156 3.54.807l.754-.657c-.834-.957-2.602-1.651-4.559-1.114l.265.964Zm-5.826 7.103c.447-1.642 1.336-3.274 2.414-4.575 1.085-1.31 2.314-2.229 3.411-2.528l-.263-.965c-1.375.376-2.767 1.466-3.918 2.855-1.16 1.4-2.121 3.157-2.609 4.951l.965.262Zm.534 4.35c-.554-.574-.777-1.343-.812-2.154-.035-.812.122-1.617.278-2.196l-.965-.261c-.17.63-.353 1.546-.312 2.5.04.954.309 1.995 1.091 2.805l.72-.695ZM9.25 46.88c.566-.557.58-1.47.029-2.046l-.722.693a.457.457 0 0 1-.009.64l.702.713Zm-2.042-.028a1.434 1.434 0 0 0 2.04.03l-.698-.716a.434.434 0 0 1-.622-.008l-.72.694Zm-1.244-7.13c-.778 2.865-.394 5.435 1.244 7.13l.72-.695c-1.31-1.356-1.722-3.513-1-6.173l-.964-.262Zm7.85-9.137c-1.867.509-3.582 1.896-4.939 3.571-1.362 1.682-2.406 3.704-2.911 5.566l.965.262c.466-1.718 1.442-3.617 2.723-5.198 1.286-1.587 2.836-2.803 4.425-3.237l-.263-.964Zm6.463 1.694c-1.235-1.418-3.701-2.448-6.463-1.694l.263.964c2.389-.651 4.461.256 5.446 1.387l.754-.657Zm.72 3.3c.454-1.105.141-2.315-.72-3.3l-.753.657c.677.775.824 1.592.549 2.263l.925.38Zm-4.048 2.193c1.268-.083 2.18-.378 2.83-.788.657-.414 1.023-.93 1.219-1.405l-.925-.38c-.122.295-.357.643-.826.939-.475.299-1.215.56-2.364.636l.066.998Zm-1.535.763c.286-.44.749-.711 1.535-.763l-.066-.998c-1.015.067-1.808.447-2.308 1.216l.84.545Zm-.18 4.755c-.175-.846-.304-1.785-.296-2.649.008-.877.156-1.612.476-2.107l-.84-.543c-.472.73-.627 1.693-.636 2.641-.009.96.134 1.974.318 2.861l.979-.203Zm5.978-5.923c-1.496-.047-2.886.89-4.025 2.02-1.157 1.145-2.153 2.585-2.867 3.742l.85.525c.698-1.13 1.646-2.492 2.72-3.557 1.093-1.082 2.223-1.764 3.29-1.73l.032-1Zm1.42.69a1.915 1.915 0 0 0-1.419-.69l-.034.999c.274.01.514.127.685.33l.767-.64Zm.553 1.495c-.052-.559-.202-1.077-.555-1.497l-.765.643c.173.207.283.5.324.947l.996-.093Zm8.694-3.258c-5.052.514-7.66 1.68-9.47 2.889l.556.832c1.651-1.103 4.096-2.225 9.015-2.726l-.1-.995Zm4.884-34.906c-.52.619-10.775 13.217-5.319 35.522l.972-.238c-5.353-21.884 4.711-34.163 5.113-34.64l-.766-.644Zm.083-.079c-.002.002-.028.022-.055.049l.71.704a.436.436 0 0 1-.025.023l-.007.006-.623-.782Zm-.075.079a.45.45 0 0 1 .056-.063l.019-.016.623.782a.599.599 0 0 0 .104-.106l-.803-.597Zm.163-.165c-.04.035-.085.075-.131.126l.738.675a.477.477 0 0 1 .043-.04l-.65-.761Zm.105-.084a.888.888 0 0 0-.135.112l.71.704c.004-.004-.002.003-.017.013l-.559-.83Zm.121-.074c-.027.016-.073.041-.121.074l.558.83a.827.827 0 0 1 .054-.033l-.49-.871Zm.02-.011-.02.011.491.871.02-.011-.491-.871Zm.1-.054c-.059.026-.106.057-.121.066l.534.846a.729.729 0 0 1 .013-.008l-.017.008L37.28 1Zm.219-.074a1.416 1.416 0 0 0-.21.07l.391.92a.423.423 0 0 1 .063-.02L37.5.926Zm-.005.002c-.007.003-.002 0 .005-.001a.378.378 0 0 1 .05-.01l.143.989c.064-.01.12-.03.121-.03l-.319-.948ZM37.49.93l.328.944L37.49.93Zm.042-.014-.037.012.318.948.003-.001-.007.002-.277-.96Zm.336-.04a1.4 1.4 0 0 0-.307.033l.219.976a.4.4 0 0 1 .088-.01v-1Zm.156.004-.139-.004-.034 1 .139.004.034-1Zm1.083.514a1.432 1.432 0 0 0-1.1-.514v1c.13 0 .25.056.334.156l.766-.642Zm5.366 35.346c5.359-22.197-4.846-34.731-5.367-35.348l-.764.645c.4.475 10.416 12.69 5.159 34.468l.972.235Zm15.64 6.407c-.06-.223-.564-1.785-2.836-3.39-2.265-1.599-6.258-3.22-13.26-3.633l-.06.998c6.878.407 10.674 1.991 12.744 3.453 2.063 1.456 2.441 2.811 2.447 2.832l.965-.26Zm.008.041c.005.02.007.036.008.043v.007c.001.001.001.002 0 0v-.008l-.002-.015a.586.586 0 0 0-.011-.058l-.97.24a.439.439 0 0 1-.01-.042v-.008s0-.001 0 0v.008l.003.016a.531.531 0 0 0 .01.057l.972-.24Zm.023.137-.014-.092-.99.15.015.093.989-.15Zm.015.175c0-.074-.01-.142-.015-.17l-.99.14.003.021.002.012V43.5h1Zm-.002-.038a.42.42 0 0 1 .002.038h-1l.002.053.996-.09Zm0-.004-.001-.007-.994.113.001.007.994-.113Zm.002.02a.514.514 0 0 0-.003-.025l-.992.123c0 .002 0 0 0 0l-.001-.01.996-.087Zm.002.05a.578.578 0 0 0-.002-.05l-.996.088a.396.396 0 0 1-.002-.037h1Zm-.002.056a.787.787 0 0 0 .002-.055h-1v-.018l.998.072Zm-.006.056.006-.056-.997-.073v-.004l-.001.009.992.124Zm0 .005v-.005l-.992-.124v.006l.992.123Zm.002-.023v-.003l-.997-.07v.003l.997.07Zm-.021.167c.015-.072.02-.141.02-.167l-.997-.07-.001.02-.001.012v-.002l.979.207Zm-.003.017a1.13 1.13 0 0 0 .007-.039l-.987-.163v.005l.98.197Zm-.006.029.006-.03-.98-.197-.002.008.976.219Zm-.014.056.014-.056-.976-.219a1.83 1.83 0 0 1-.008.035l.97.24Zm-.01.038.005-.017-.96-.282-.005.016.96.282Zm-.002.006.003-.011-.962-.273-.003.012.962.272Zm-.04.117c.022-.052.035-.101.04-.117l-.963-.271a1.11 1.11 0 0 0-.005.017l.004-.01.925.381Zm-18.82-5.005h-2.43v1h2.43v-1ZM38.377 5.48c2.696 4.639 7.691 16.41 2.385 33.92l.957.29c5.404-17.834.324-29.892-2.478-34.713l-.864.503Zm.932 34.066V5.23h-1v34.317h1Zm-1.881 0V5.479h-1v34.068h1Zm-2.793.5h2.293v-1h-2.293v1Zm1.858-34.814c-2.822 4.99-7.636 16.97-2.337 34.459l.957-.29c-5.203-17.17-.47-28.867 2.25-33.677l-.87-.492Zm19.634 39.023-.005.016.956.296.004-.015-.955-.297Zm.542.644-.13-.991.13.991Zm.365-2.22c-.579.514-.799 1.226-.907 1.576l.955.297c.112-.362.268-.817.616-1.124l-.664-.749ZM43.476 39c9.453.491 12.575 3.188 13.495 4.363l.788-.617C56.596 41.262 53.147 38.5 43.528 38l-.052.998Zm-.172 1.938c.246-.78.471-1.547.68-2.305l-.964-.266a62.615 62.615 0 0 1-.67 2.27l.954.301ZM41.93 41.95c.63 0 1.183-.413 1.373-1.011l-.954-.302a.443.443 0 0 1-.42.313v1Zm-7.991 0h7.99v-1h-7.99v1Zm-1.373-1.011c.19.598.742 1.01 1.373 1.01v-1a.442.442 0 0 1-.42-.312l-.953.302Zm-.633-2.148c.197.704.405 1.419.633 2.146l.954-.298c-.224-.716-.43-1.42-.623-2.117l-.964.269Zm-9.074 3.656c.813-.635 1.725-1.308 3.166-1.898 1.447-.593 3.45-1.11 6.437-1.395l-.094-.995c-3.059.29-5.162.825-6.722 1.464-1.565.642-2.561 1.38-3.402 2.036l.615.788Zm.168-.165.02-.164-.99-.13c-.009.056-.016.113-.023.168l.992.126Zm-.036.274.035-.274-.992-.126a21.21 21.21 0 0 1-.034.262l.99.138Zm-.2 2.237c-.026-.513.105-1.524.2-2.24l-.991-.132c-.089.67-.24 1.795-.209 2.421l1-.05Zm-.275-.967c-.298.406-.413.521-.48.562l.51.86c.276-.164.509-.466.776-.83l-.806-.592Zm.004-.006-.003.005.803.595.004-.005-.804-.595Zm2.87-1.74c-1.602 0-2.395 1.1-2.87 1.74l.804.595c.49-.66 1.013-1.335 2.066-1.335v-1Zm2.868 1.74c-.474-.64-1.268-1.74-2.868-1.74v1c1.052 0 1.575.675 2.065 1.335l.803-.595Zm.003.004-.003-.004-.803.596.003.004.803-.596Zm.56.577a.187.187 0 0 1-.062-.007.195.195 0 0 1-.056-.037c-.088-.073-.21-.217-.44-.532l-.806.594c.22.298.41.543.606.706.235.196.477.276.759.276v-1Zm.56-.577c-.233.315-.354.46-.442.533a.19.19 0 0 1-.056.037.182.182 0 0 1-.061.007v1c.282 0 .523-.08.758-.276.195-.163.385-.408.605-.705l-.803-.596Zm.004-.004-.003.005.803.595.003-.005-.803-.595Zm2.87-1.74c-1.602 0-2.396 1.1-2.87 1.74l.803.595c.49-.66 1.013-1.335 2.067-1.335v-1Zm2.868 1.74c-.474-.64-1.268-1.74-2.868-1.74v1c1.051 0 1.575.675 2.064 1.335l.804-.595Zm.003.004-.003-.004-.804.596.004.004.803-.596Zm.56.577a.178.178 0 0 1-.06-.007.195.195 0 0 1-.056-.037c-.088-.074-.21-.218-.444-.533l-.803.596c.22.298.411.542.606.705.234.195.476.276.757.276v-1Zm.56-.577c-.233.315-.355.46-.442.533a.192.192 0 0 1-.056.037.183.183 0 0 1-.062.007v1c.283 0 .524-.08.759-.276.195-.163.385-.408.605-.705l-.803-.596Zm2.871-1.744c-1.605 0-2.399 1.105-2.871 1.745l.804.594c.488-.66 1.011-1.34 2.067-1.34v-1Zm2.868 1.74c-.474-.64-1.267-1.74-2.867-1.74v1c1.05 0 1.574.675 2.064 1.335l.803-.595Zm.004.005-.004-.005-.803.595.003.005.804-.595Zm.562.578a.183.183 0 0 1-.062-.007.193.193 0 0 1-.057-.037c-.088-.073-.21-.218-.443-.534l-.804.594c.22.3.411.545.607.708.235.196.477.276.76.276v-1Zm.56-.576c-.233.315-.355.46-.443.533-.035.029-.051.035-.055.037a.185.185 0 0 1-.062.006v1c.282 0 .524-.08.758-.276.195-.163.385-.407.606-.705l-.804-.595Zm.004-.005-.004.005.804.595.003-.004-.803-.596Zm2.87-1.74c-1.602 0-2.396 1.1-2.87 1.74l.803.596c.49-.66 1.013-1.336 2.067-1.336v-1Zm2.867 1.74c-.474-.639-1.267-1.74-2.867-1.74v1c1.05 0 1.574.675 2.064 1.336l.803-.596Zm.004.005-.004-.005-.803.596.003.005.804-.596Zm.56.576a.184.184 0 0 1-.062-.007.197.197 0 0 1-.057-.037c-.087-.073-.209-.217-.44-.531l-.805.593c.22.298.41.543.605.706.235.196.477.276.759.276v-1Zm.562-.578c-.233.316-.355.46-.443.534a.192.192 0 0 1-.057.037.181.181 0 0 1-.062.007v1c.282 0 .524-.08.759-.276.196-.163.386-.409.607-.708l-.804-.594Zm2.871-1.745c-1.603 0-2.399 1.105-2.871 1.745l.804.594c.488-.66 1.014-1.34 2.067-1.34v-1Zm2.87 1.74c-.474-.64-1.267-1.74-2.87-1.74v1c1.054 0 1.578.675 2.067 1.335l.803-.595Zm.004.004-.004-.004-.803.596.003.004.804-.596Zm.56.577a.18.18 0 0 1-.06-.007.196.196 0 0 1-.057-.037c-.088-.074-.21-.218-.443-.533l-.804.596c.221.298.412.542.607.705.234.195.475.276.757.276v-1Zm.143.483c-.202-.457-.201-.458-.201-.458h.001l.002-.001.004-.002.007-.003a.254.254 0 0 1 .036-.012.276.276 0 0 1 .03-.008c.01-.002.005 0-.022 0v1a1.123 1.123 0 0 0 .28-.035.656.656 0 0 0 .05-.017l.008-.003.004-.002h.002v-.001l-.2-.458Zm-.306-.612a8.186 8.186 0 0 1-.115.345.246.246 0 0 1 .008-.012.393.393 0 0 1 .034-.046l.76.65c.067-.079.105-.172.117-.2.021-.048.04-.102.058-.151.035-.1.07-.211.094-.29l-.956-.296Z" fill="#222532"/><path d="M7.288 31.136c-.12-.145-1.21-1.405-2.608-1.405-.646 0-1.57.268-2.297 1.542l-.812 1.424h7.02l-1.303-1.561Z" fill="#fff" stroke="#222532"/><path fill-rule="evenodd" clip-rule="evenodd" d="m5.464 34.575.966.102-.122.973c-.355 2.63-3.102 5.404-3.22 5.522l-1.272 1.272-.315-1.78c-.374-2.093-.108-3.702.788-4.782 1.253-1.512 3.175-1.307 3.175-1.307ZM3.735 37.1c-.167.199-.291.453-.378.752.2-.301.392-.617.557-.935a1.64 1.64 0 0 0-.179.183Z" fill="#fff"/><path d="m6.43 34.677.497.062.063-.506-.507-.054-.053.498Zm-.966-.102-.053.497.053-.498Zm.844 1.075.496.067v-.005l-.496-.062Zm-3.22 5.522.354.354.002-.002-.355-.352Zm-1.272 1.272-.492.087.167.945.679-.678-.354-.354Zm-.315-1.78.493-.087-.493.087Zm.788-4.782.385.32-.385-.32Zm1.068 1.97-.48-.14-.054.186.085.174.449-.22Zm.378-.752.384.32.003-.003-.387-.317Zm-.378.752-.45.22.385.783.481-.727-.416-.276Zm.557-.935.444.23-.777-.603.333.373Zm2.569-2.738-.967-.102-.105.995.967.102.105-.995Zm.321 1.533.123-.973-.993-.125-.122.973.992.125Zm-3.36 5.812c.067-.068.804-.812 1.571-1.88.759-1.054 1.594-2.487 1.789-3.927l-.991-.134c-.161 1.19-.876 2.458-1.61 3.477-.723 1.007-1.419 1.71-1.47 1.76l.71.704ZM2.17 42.798l1.272-1.272-.707-.708-1.272 1.273.707.707ZM1.009 40.75l.315 1.78.985-.174-.315-1.78-.985.174Zm.895-5.188c-1.03 1.24-1.281 3.026-.895 5.19l.984-.177c-.361-2.023-.081-3.456.68-4.374l-.769-.64Zm3.56-.989.052-.497h-.012l-.023-.003a3.91 3.91 0 0 0-.348-.008c-.225.005-.537.03-.892.107-.71.154-1.618.523-2.337 1.39l.77.638c.535-.645 1.215-.929 1.778-1.05a3.765 3.765 0 0 1 .903-.083l.048.003h.01s0 .001 0 0h-.001l.052-.496Zm-1.627 3.418c.073-.251.17-.438.282-.571l-.767-.642a2.548 2.548 0 0 0-.475.933l.96.28Zm-.031-.36-.898.44.898-.44Zm-.336-.945a9.695 9.695 0 0 1-.53.889l.833.552c.207-.31.41-.642.585-.981l-.888-.46Zm.652.73c.034-.041.074-.082.125-.127l-.666-.746a2.135 2.135 0 0 0-.232.239l.773.634Z" fill="#222532"/><path fill-rule="evenodd" clip-rule="evenodd" d="M12.707 29.291c0 .992-.802 1.8-1.785 1.8a1.793 1.793 0 0 1-1.783-1.8c0-.992.8-1.799 1.783-1.799.985 0 1.785.807 1.785 1.8Zm-1.687 0a.1.1 0 0 0-.098-.1.098.098 0 0 0-.097.1c0 .11.195.11.195 0Z" fill="#fff"/><path d="M10.922 31.59a2.295 2.295 0 0 0 2.285-2.299h-1c0 .72-.582 1.3-1.285 1.3v1Zm-2.283-2.299a2.293 2.293 0 0 0 2.283 2.3v-1a1.293 1.293 0 0 1-1.283-1.3h-1Zm2.283-2.299a2.293 2.293 0 0 0-2.283 2.3h1c0-.72.58-1.3 1.283-1.3v-1Zm2.285 2.3a2.293 2.293 0 0 0-2.285-2.3v1c.705 0 1.285.58 1.285 1.3h1Zm-2.285.4a.4.4 0 0 1-.402-.4h1a.6.6 0 0 0-.598-.6v1Zm.403-.4c0 .2-.162.4-.403.4v-1c-.35 0-.597.289-.597.6h1Zm-.805 0c0-.143.072-.267.171-.34a.387.387 0 0 1 .232-.079c.06 0 .147.016.232.079.098.073.17.197.17.34h-1c0 .196.097.36.232.461a.613.613 0 0 0 .732 0 .574.574 0 0 0 .231-.462h-1Z" fill="#222532"/></svg>